<svg width="186" height="138" viewBox="0 0 186 138" fill="none" xmlns="http://www.w3.org/2000/svg">
<path fill-rule="evenodd" clip-rule="evenodd" d="M86.9071 15L83.3065 33.0271L83.2368 33.6855C83.2002 36.7266 87.1354 39.2823 92.1241 39.2823L117.964 39.2811C120.881 39.281 123.5 41.4461 123.5 44.3697C123.5 59.3865 112.258 71.8238 97.5928 74L100.942 56.6672L101.012 56.0089C101.047 53.0598 97.3518 51.3218 92.5791 51.2192L69.7044 50.9194C65.9447 50.87 62.5 48.1388 62.5 44.3697C62.5 29.869 72.9819 17.7739 86.9071 15Z" fill="#00C1B1"/>
<path fill-rule="evenodd" clip-rule="evenodd" d="M84.0238 122.222C83.3919 122.457 82.235 122.783 80.519 122.801C76.255 122.891 72.4059 120.45 72.424 115.403V98.9974H68.3589V94.6564H72.424V88H77.8267V94.6564H83.5181V98.9974H77.8267V114.282C77.8267 117.411 79.3984 117.99 81.1509 117.99C81.9186 117.99 82.5312 117.862 82.9118 117.783L82.9129 117.782L82.9963 117.765L83.0476 117.754L84.0238 122.222ZM40.8729 108.674C40.8729 117.266 35.7601 123 27.9366 123C20.1133 123 15 117.266 15 108.674C15 100.028 20.1133 94.2945 27.9366 94.2945C35.7601 94.2945 40.8729 100.028 40.8729 108.674ZM20.4567 108.656C20.4567 113.992 22.8416 118.46 27.9549 118.46C33.032 118.46 35.417 113.992 35.417 108.656C35.417 103.339 33.032 98.8165 27.9549 98.8165C22.8416 98.8165 20.4567 103.339 20.4567 108.656ZM55.0858 123C61.7887 123 66.4322 119.437 66.4322 114.408C66.4322 110.483 63.9388 108.059 58.8441 106.884L54.4358 105.871C51.3821 105.147 50.0627 104.116 50.0809 102.235C50.0627 100.101 52.3754 98.5814 55.4472 98.5814C58.8077 98.5814 60.3613 100.444 60.9942 102.307L65.8901 101.439C64.7707 97.1162 61.392 94.2945 55.3927 94.2945C49.124 94.2945 44.6793 97.6047 44.6793 102.525C44.6793 106.468 47.0636 109.09 52.2674 110.248L56.9655 111.279C59.6396 111.876 60.8852 113.07 60.8852 114.806C60.8852 116.959 58.5907 118.641 55.0495 118.641C51.8151 118.641 49.7377 117.248 49.0876 114.517L43.8656 115.313C44.7691 120.233 48.8524 123 55.0858 123ZM93.0864 122.439V105.473C93.0864 101.837 95.8877 99.2144 99.7176 99.2144C100.838 99.2144 102.103 99.4134 102.536 99.54V94.367C101.994 94.2946 100.928 94.2403 100.241 94.2403C96.99 94.2403 94.2069 96.0852 93.1954 99.0698H92.9057V94.6563H87.6848V122.439H93.0864ZM129.053 108.674C129.053 117.266 123.939 123 116.116 123C108.293 123 103.18 117.266 103.18 108.674C103.18 100.028 108.293 94.2945 116.116 94.2945C123.939 94.2945 129.053 100.028 129.053 108.674ZM116.134 118.46C111.021 118.46 108.636 113.992 108.636 108.656C108.636 103.339 111.021 98.8165 116.134 98.8165C121.212 98.8165 123.596 103.339 123.596 108.656C123.596 113.992 121.212 118.46 116.134 118.46ZM138.676 105.31V122.439H133.274V94.6563H138.459V99.1782H138.802C139.959 96.1214 142.687 94.2945 146.355 94.2945C150.059 94.2945 152.606 96.1395 153.817 99.1782H154.107C155.443 96.2119 158.442 94.2945 162.436 94.2945C167.459 94.2945 171 97.4599 171 103.809V122.439H165.597V104.315C165.597 100.553 163.248 98.9613 160.393 98.9613C156.87 98.9613 154.828 101.385 154.828 104.731V122.439H149.445V103.971C149.445 100.951 147.366 98.9613 144.367 98.9613C141.295 98.9613 138.676 101.566 138.676 105.31Z" fill="#16295A"/>
</svg>
