<?xml version="1.0" encoding="UTF-8"?>
<svg width="600px" height="600px" viewBox="0 0 600 600" version="1.1" xmlns="http://www.w3.org/2000/svg" xmlns:xlink="http://www.w3.org/1999/xlink">
    <title>ostrom_logo_symbol</title>
    <g id="ostrom_logo_symbol" stroke="none" fill="none" fill-rule="evenodd">
        <path d="M276.565769,93 L262.717308,162.270801 L262.449231,164.800764 C262.308462,176.486472 277.443846,186.306986 296.631154,186.306986 L396.015385,186.302375 C407.234615,186.301991 417.307692,194.621588 417.307692,205.855792 C417.307692,263.559236 374.069231,311.350713 317.664615,319.712963 L330.546154,253.110074 L330.815385,250.580495 C330.95,239.248306 316.737692,232.56988 298.381154,232.17563 L210.401538,231.02362 C195.941154,230.833796 182.692308,220.338907 182.692308,205.855792 C182.692308,150.135509 223.007308,103.658968 276.565769,93 Z M261.721538,487.841759 L265.476154,505.010463 L265.052371,505.163939 C262.618485,506.022975 258.481761,507.104263 252.541179,507.226853 L251.996154,507.235324 C235.596154,507.581157 220.791923,498.201389 220.861538,478.807824 L220.861538,415.767787 L205.226538,415.767787 L205.226538,399.087093 L220.861538,399.087093 L220.861538,373.509259 L241.641154,373.509259 L241.641154,399.087093 L263.531154,399.087093 L263.531154,415.767787 L241.641154,415.767787 L241.641154,474.500278 C241.641154,486.52375 247.686154,488.748611 254.426538,488.748611 C257.379231,488.748611 259.735385,488.256759 261.199231,487.953194 L261.524231,487.884028 L261.721538,487.841759 Z M99.5111538,452.951019 C99.5111538,485.966574 79.8465385,508 49.7561538,508 C19.6665385,508 0,485.966574 0,452.951019 C0,419.727963 19.6665385,397.696458 49.7561538,397.696458 C79.8465385,397.696458 99.5111538,419.727963 99.5111538,452.951019 Z M20.9873077,452.881852 C20.9873077,473.385926 30.16,490.55463 49.8265385,490.55463 C69.3538462,490.55463 78.5269231,473.385926 78.5269231,452.881852 C78.5269231,432.450787 69.3538462,415.072662 49.8265385,415.072662 C30.16,415.072662 20.9873077,432.450787 20.9873077,452.881852 Z M154.176154,508 C179.956538,508 197.816154,494.308843 197.816154,474.984444 C197.816154,459.902269 188.226154,450.587824 168.631154,446.072778 L151.676154,442.180231 C140.087754,439.435288 134.993047,435.541917 134.926486,428.495944 L134.926538,428.208565 C134.856538,420.008472 143.751538,414.169269 155.566154,414.169269 C168.491154,414.169269 174.466538,421.326481 176.900769,428.485231 L195.731154,425.149861 C191.425769,408.539102 178.430769,397.696458 155.356538,397.696458 C131.246154,397.696458 114.151154,410.416208 114.151154,429.322917 C114.151154,444.474259 123.321538,454.549537 143.336154,458.999259 L161.405769,462.960972 C171.690769,465.255 176.481538,469.843056 176.481538,476.513796 C176.481538,484.786898 167.656538,491.250139 154.036538,491.250139 C141.596538,491.250139 133.606538,485.897407 131.106154,475.403287 L111.021538,478.461991 C114.496538,497.367546 130.201538,508 154.176154,508 Z M300.332308,505.844306 L300.332308,440.65088 C300.332308,426.679213 311.106538,416.60163 325.836923,416.60163 C330.146154,416.60163 335.011538,417.366306 336.676923,417.852778 L336.676923,397.975046 C334.592308,397.696843 330.492308,397.48819 327.85,397.48819 C315.346154,397.48819 304.641923,404.577389 300.751538,416.045991 L299.637308,416.045991 L299.637308,399.086708 L279.556923,399.086708 L279.556923,505.844306 L300.332308,505.844306 Z M438.665385,452.951019 C438.665385,485.966574 418.996154,508 388.907692,508 C358.819231,508 339.153846,485.966574 339.153846,452.951019 C339.153846,419.727963 358.819231,397.696458 388.907692,397.696458 C418.996154,397.696458 438.665385,419.727963 438.665385,452.951019 Z M388.976923,490.55463 C369.311538,490.55463 360.138462,473.385926 360.138462,452.881852 C360.138462,432.450787 369.311538,415.072662 388.976923,415.072662 C408.507692,415.072662 417.676923,432.450787 417.676923,452.881852 C417.676923,473.385926 408.507692,490.55463 388.976923,490.55463 Z M475.676923,440.024537 L475.676923,505.844306 L454.9,505.844306 L454.9,399.086708 L474.842308,399.086708 L474.842308,416.462528 L476.161538,416.462528 C480.611538,404.716491 491.103846,397.696458 505.211538,397.696458 C519.457692,397.696458 529.253846,404.786042 533.911538,416.462528 L535.026923,416.462528 C540.165385,405.064245 551.7,397.696458 567.061538,397.696458 C586.380769,397.696458 600,409.859801 600,434.256806 L600,505.844306 L579.219231,505.844306 L579.219231,436.201157 C579.219231,421.745324 570.184615,415.629069 559.203846,415.629069 C545.653846,415.629069 537.8,424.942361 537.8,437.799676 L537.8,505.844306 L517.096154,505.844306 L517.096154,434.879306 C517.096154,423.274676 509.1,415.629069 497.565385,415.629069 C485.75,415.629069 475.676923,425.63787 475.676923,440.024537 Z" id="Shape" fill="#000000"></path>
    </g>
</svg>